<svg xmlns="http://www.w3.org/2000/svg" viewBox="0 0 256 256" width="256" height="256">
  <defs>
    <!-- Gradient for the shield -->
    <linearGradient id="shieldGradient" x1="0%" y1="0%" x2="100%" y2="100%">
      <stop offset="0%" style="stop-color:#667eea;stop-opacity:1" />
      <stop offset="100%" style="stop-color:#764ba2;stop-opacity:1" />
    </linearGradient>

    <!-- Gradient for the block symbol -->
    <linearGradient id="blockGradient" x1="0%" y1="0%" x2="100%" y2="100%">
      <stop offset="0%" style="stop-color:#ef4444;stop-opacity:1" />
      <stop offset="100%" style="stop-color:#dc2626;stop-opacity:1" />
    </linearGradient>

    <!-- Shadow filter -->
    <filter id="shadow" x="-50%" y="-50%" width="200%" height="200%">
      <feDropShadow dx="2" dy="4" stdDeviation="3" flood-color="rgba(0,0,0,0.3)"/>
    </filter>
  </defs>

  <!-- Background circle -->
  <circle cx="128" cy="128" r="120" fill="url(#shieldGradient)" filter="url(#shadow)"/>

  <!-- Shield shape -->
  <path d="M128 40
           C 108 40, 88 48, 88 60
           L 88 120
           C 88 160, 108 200, 128 220
           C 148 200, 168 160, 168 120
           L 168 60
           C 168 48, 148 40, 128 40 Z"
        fill="white"
        opacity="0.95"/>

  <!-- Block symbol (prohibit sign) -->
  <circle cx="128" cy="128" r="45" fill="none" stroke="url(#blockGradient)" stroke-width="8"/>

  <!-- Diagonal line through the circle -->
  <line x1="96" y1="96" x2="160" y2="160" stroke="url(#blockGradient)" stroke-width="8" stroke-linecap="round"/>

  <!-- "AD" text being blocked -->
  <g transform="translate(128, 128)">
    <text x="-15" y="-5" font-family="Arial, sans-serif" font-size="20" font-weight="bold" fill="#9ca3af" opacity="0.7">AD</text>
  </g>

  <!-- Additional decorative elements -->
  <g opacity="0.3">
    <!-- Small dots pattern around the shield -->
    <circle cx="60" cy="80" r="3" fill="white"/>
    <circle cx="196" cy="80" r="3" fill="white"/>
    <circle cx="60" cy="176" r="3" fill="white"/>
    <circle cx="196" cy="176" r="3" fill="white"/>

    <!-- Sparkle effect -->
    <g transform="translate(180, 60)">
      <path d="M0,-8 L2,0 L0,8 L-2,0 Z" fill="white"/>
      <path d="M-8,0 L0,2 L8,0 L0,-2 Z" fill="white"/>
    </g>

    <g transform="translate(76, 200) scale(0.7)">
      <path d="M0,-8 L2,0 L0,8 L-2,0 Z" fill="white"/>
      <path d="M-8,0 L0,2 L8,0 L0,-2 Z" fill="white"/>
    </g>
  </g>

  <!-- Border highlight -->
  <circle cx="128" cy="128" r="118" fill="none" stroke="rgba(255,255,255,0.2)" stroke-width="2"/>
</svg>
