<svg xmlns="http://www.w3.org/2000/svg" viewBox="0 0 256 256" width="256" height="256">
  <defs>
    <!-- Gradient for the disabled shield -->
    <linearGradient id="disabledGradient" x1="0%" y1="0%" x2="100%" y2="100%">
      <stop offset="0%" style="stop-color:#6b7280;stop-opacity:1" />
      <stop offset="100%" style="stop-color:#4b5563;stop-opacity:1" />
    </linearGradient>

    <!-- Gradient for the disabled block symbol -->
    <linearGradient id="disabledBlockGradient" x1="0%" y1="0%" x2="100%" y2="100%">
      <stop offset="0%" style="stop-color:#9ca3af;stop-opacity:1" />
      <stop offset="100%" style="stop-color:#6b7280;stop-opacity:1" />
    </linearGradient>

    <!-- Shadow filter -->
    <filter id="shadow" x="-50%" y="-50%" width="200%" height="200%">
      <feDropShadow dx="2" dy="4" stdDeviation="3" flood-color="rgba(0,0,0,0.2)"/>
    </filter>
  </defs>

  <!-- Background circle (disabled state) -->
  <circle cx="128" cy="128" r="120" fill="url(#disabledGradient)" filter="url(#shadow)"/>

  <!-- Shield shape (grayed out) -->
  <path d="M128 40
           C 108 40, 88 48, 88 60
           L 88 120
           C 88 160, 108 200, 128 220
           C 148 200, 168 160, 168 120
           L 168 60
           C 168 48, 148 40, 128 40 Z"
        fill="#e5e7eb"
        opacity="0.7"/>

  <!-- Disabled indicator - X mark instead of block symbol -->
  <g transform="translate(128, 128)">
    <!-- X mark -->
    <line x1="-25" y1="-25" x2="25" y2="25" stroke="url(#disabledBlockGradient)" stroke-width="6" stroke-linecap="round"/>
    <line x1="25" y1="-25" x2="-25" y2="25" stroke="url(#disabledBlockGradient)" stroke-width="6" stroke-linecap="round"/>
  </g>

  <!-- "AD" text (more visible since blocking is disabled) -->
  <g transform="translate(128, 138)">
    <text x="-15" y="0" font-family="Arial, sans-serif" font-size="18" font-weight="bold" fill="#374151" opacity="0.8">AD</text>
  </g>

  <!-- Warning indicator -->
  <g transform="translate(128, 60)">
    <circle cx="0" cy="0" r="12" fill="#fbbf24"/>
    <text x="0" y="4" font-family="Arial, sans-serif" font-size="14" font-weight="bold" fill="white" text-anchor="middle">!</text>
  </g>

  <!-- Dimmed decorative elements -->
  <g opacity="0.2">
    <!-- Small dots pattern around the shield -->
    <circle cx="60" cy="80" r="3" fill="#e5e7eb"/>
    <circle cx="196" cy="80" r="3" fill="#e5e7eb"/>
    <circle cx="60" cy="176" r="3" fill="#e5e7eb"/>
    <circle cx="196" cy="176" r="3" fill="#e5e7eb"/>
  </g>

  <!-- Border highlight (dimmed) -->
  <circle cx="128" cy="128" r="118" fill="none" stroke="rgba(255,255,255,0.1)" stroke-width="2"/>
</svg>
